<svg width="28" height="28" viewBox="0 0 28 28" fill="none" xmlns="http://www.w3.org/2000/svg">
<g clip-path="url(#clip0_2076_88686)">
<path d="M4.35874 26H23.6413C24.4152 26.0029 25.1759 25.8013 25.8446 25.4161C26.5133 25.0309 27.0656 24.476 27.4444 23.8089C27.8232 23.1418 28.0147 22.3867 27.9991 21.6219C27.9835 20.8571 27.7613 20.1103 27.3556 19.4588L17.7144 4.04288C17.3223 3.41812 16.7753 2.9026 16.1254 2.54511C15.4754 2.18762 14.7438 2 14 2C13.2562 2 12.5246 2.18762 11.8746 2.54511C11.2247 2.9026 10.6777 3.41812 10.2856 4.04288L0.644388 19.4588C0.238665 20.1103 0.0164957 20.8571 0.000883635 21.6219C-0.0147284 22.3867 0.176783 23.1418 0.555591 23.8089C0.934399 24.476 1.48673 25.0309 2.1554 25.4161C2.82407 25.8013 3.58477 26.0029 4.35874 26Z" fill="url(#paint0_linear_2076_88686)" stroke="white" stroke-width="1.5"/>
<path d="M13.7642 21.8584C14.7784 21.8584 15.6006 21.0362 15.6006 20.022C15.6006 19.0077 14.7784 18.1855 13.7642 18.1855C12.7499 18.1855 11.9277 19.0077 11.9277 20.022C11.9277 21.0362 12.7499 21.8584 13.7642 21.8584Z" fill="#ECF0F1"/>
<path d="M15.6006 9.00441C15.6006 10.0144 14.7742 15.4319 13.7642 15.4319C12.7541 15.4319 11.9277 10.0144 11.9277 9.00441C11.9277 8.51735 12.1212 8.05025 12.4656 7.70585C12.81 7.36145 13.2771 7.16797 13.7642 7.16797C14.2512 7.16797 14.7183 7.36145 15.0627 7.70585C15.4071 8.05025 15.6006 8.51735 15.6006 9.00441Z" fill="#ECF0F1"/>
</g>
<defs>
<linearGradient id="paint0_linear_2076_88686" x1="2.79276" y1="23.2315" x2="26.0847" y2="15.2192" gradientUnits="userSpaceOnUse">
<stop stop-color="#8826D6"/>
<stop offset="1" stop-color="#C074FD"/>
</linearGradient>
<clipPath id="clip0_2076_88686">
<rect width="28" height="28" fill="white"/>
</clipPath>
</defs>
</svg>
