<svg width="60" height="60" viewBox="0 0 60 60" fill="none" xmlns="http://www.w3.org/2000/svg">
<path d="M43.8406 59H2.16057C1.98098 59.0003 1.80381 58.9586 1.64312 58.8784C1.48243 58.7982 1.34266 58.6817 1.23491 58.538C1.12715 58.3943 1.05439 58.2275 1.02239 58.0508C0.990389 57.8741 1.00004 57.6923 1.05057 57.52C1.40057 56.31 1.76057 55.11 2.11057 53.91C2.42669 52.5496 2.98198 51.2562 3.75057 50.09C5.15284 48.123 7.26498 46.7782 9.64058 46.34L17.0006 45H29.0006L36.3606 46.34C38.7362 46.7782 40.8483 48.123 42.2506 50.09C43.0192 51.2562 43.5745 52.5496 43.8906 53.91C44.2406 55.11 44.6006 56.31 44.9506 57.52C45.0011 57.6923 45.0108 57.8741 44.9788 58.0508C44.9468 58.2275 44.874 58.3943 44.7662 58.538C44.6585 58.6817 44.5187 58.7982 44.358 58.8784C44.1973 58.9586 44.0202 59.0003 43.8406 59Z" fill="url(#paint0_linear_2076_88463)"/>
<path d="M7.8 23.4335C5 20.2565 5 17.3005 5 14.9585C5.08526 11.2067 6.64368 7.63916 9.33833 5.02722C12.033 2.41528 15.6474 0.968801 19.4 1.00051C31.856 1.00051 41 6.81651 41 16.1215C40.8586 18.7949 39.8655 21.353 38.166 23.4215L7.8 23.4335Z" fill="url(#paint1_linear_2076_88463)"/>
<path d="M36.0004 23H36.5304C36.9867 23.0005 37.4383 23.0918 37.859 23.2686C38.2796 23.4454 38.6608 23.7043 38.9804 24.03C39.4668 24.5182 39.7982 25.1392 39.9331 25.815C40.068 26.4908 40.0004 27.1914 39.7387 27.8289C39.4771 28.4665 39.0331 29.0126 38.4623 29.3988C37.8916 29.785 37.2195 29.9942 36.5304 30H9.47039C8.78127 29.9942 8.10921 29.785 7.53847 29.3988C6.96772 29.0126 6.5237 28.4665 6.26206 27.8289C6.00042 27.1914 5.93281 26.4908 6.06772 25.815C6.20262 25.1392 6.53403 24.5182 7.02039 24.03C7.33995 23.7043 7.72116 23.4454 8.1418 23.2686C8.56244 23.0918 9.01409 23.0005 9.47039 23H36.0004Z" fill="#F9C795"/>
<path d="M29 44.9991C29 44.9991 27.63 47.9991 23 47.9991C18.37 47.9991 17 44.9991 17 44.9991C17.5952 44.6545 18.0917 44.1626 18.442 43.5707C18.7922 42.9788 18.9844 42.3067 19 41.6191V39.3691H27V41.6191C27.0156 42.3067 27.2078 42.9788 27.558 43.5707C27.9083 44.1626 28.4048 44.6545 29 44.9991Z" fill="#FDD7AD"/>
<path d="M36 20.9V27C36 30.4478 34.6304 33.7544 32.1924 36.1924C29.7544 38.6304 26.4478 40 23 40C19.5522 40 16.2456 38.6304 13.8076 36.1924C11.3696 33.7544 10 30.4478 10 27V19.971C9.99923 19.4206 10.1503 18.8807 10.4367 18.4107C10.7231 17.9406 11.1336 17.5587 11.623 17.307C13.9497 16.1447 15.8597 14.2909 17.091 12C17.091 12 22.163 17.15 33.247 17.907C33.9994 17.9652 34.7017 18.3063 35.2126 18.8617C35.7234 19.4171 36.0048 20.1454 36 20.9Z" fill="#FDD7AD"/>
<path d="M46 59C53.1797 59 59 53.1797 59 46C59 38.8203 53.1797 33 46 33C38.8203 33 33 38.8203 33 46C33 53.1797 38.8203 59 46 59Z" fill="url(#paint2_linear_2076_88463)" stroke="white" stroke-width="1.5"/>
<path d="M48.8272 46.0008L52.4132 42.4148C52.7775 42.0376 52.9791 41.5324 52.9745 41.008C52.97 40.4836 52.7596 39.982 52.3888 39.6112C52.018 39.2404 51.5164 39.03 50.992 39.0255C50.4676 39.0209 49.9624 39.2225 49.5852 39.5868L45.9992 43.1728L42.4132 39.5868C42.036 39.2225 41.5308 39.0209 41.0064 39.0255C40.482 39.03 39.9804 39.2404 39.6095 39.6112C39.2387 39.982 39.0284 40.4836 39.0238 41.008C39.0193 41.5324 39.2209 42.0376 39.5852 42.4148L43.1712 46.0008L39.5852 49.5868C39.3942 49.7713 39.2418 49.992 39.137 50.236C39.0322 50.48 38.977 50.7425 38.9747 51.008C38.9724 51.2736 39.023 51.5369 39.1235 51.7827C39.2241 52.0285 39.3726 52.2518 39.5604 52.4396C39.7482 52.6274 39.9715 52.7759 40.2173 52.8765C40.4631 52.977 40.7264 53.0276 40.992 53.0253C41.2575 53.023 41.52 52.9678 41.764 52.863C42.008 52.7582 42.2287 52.6058 42.4132 52.4148L45.9992 48.8288L49.5852 52.4148C49.9624 52.7791 50.4676 52.9807 50.992 52.9762C51.5164 52.9716 52.018 52.7613 52.3888 52.3905C52.7596 52.0196 52.97 51.518 52.9745 50.9936C52.9791 50.4692 52.7775 49.964 52.4132 49.5868L48.8272 46.0008Z" fill="#ECF0F1"/>
<defs>
<linearGradient id="paint0_linear_2076_88463" x1="3.5" y1="57" x2="42" y2="49.5" gradientUnits="userSpaceOnUse">
<stop stop-color="#005CC8"/>
<stop offset="1" stop-color="#4F95E9"/>
</linearGradient>
<linearGradient id="paint1_linear_2076_88463" x1="7.5" y1="22.5" x2="39" y2="9" gradientUnits="userSpaceOnUse">
<stop stop-color="#2D1303"/>
<stop offset="1" stop-color="#784E32"/>
</linearGradient>
<linearGradient id="paint2_linear_2076_88463" x1="35" y1="51.5" x2="58.5" y2="42.5" gradientUnits="userSpaceOnUse">
<stop stop-color="#DF1D09"/>
<stop offset="1" stop-color="#F96455"/>
</linearGradient>
</defs>
</svg>
